<svg id="Layer_1" xmlns="http://www.w3.org/2000/svg" viewBox="0 0 24 24">
    <style>
    </style>
    <g fill="none" stroke-width="2" stroke-linecap="round" stroke-linejoin="round" stroke-miterlimit="10">
        <path d="M7.6 22.1c1.4.6 2.8.9 4.4.9 6.1 0 11-4.9 11-11S18.1 1 12 1 1 5.9 1 12c0 2.3.7 4.3 1.8 6.1" stroke="#48578c"/>
        <path stroke="#48578c" d="M2.8 18.1V23l4.8-.9"/>
        <path d="M13.3 12.3l1 4.2H9.7l1-4.2c-.7-.4-1.3-1.3-1.3-2.2 0-1.4 1.2-2.6 2.6-2.6s2.6 1.2 2.6 2.6c0 .9-.6 1.8-1.3 2.2z" stroke="#2481d7"/>
    </g>
</svg>
