<svg id="Layer_1" data-name="Layer 1" xmlns="http://www.w3.org/2000/svg" viewBox="0 0 24 24"><defs><style>.cls-1,.cls-2{fill:none;stroke-linecap:round;stroke-linejoin:round;stroke-width:1.5px;}.cls-1{stroke:#48578c;}.cls-2{stroke:#0089ff;}</style></defs><title>Security first</title><path class="cls-1" d="M2.48,13.13A4.16,4.16,0,0,1,.94,9.81,4.44,4.44,0,0,1,5.36,5.38a3.91,3.91,0,0,1,2.21.67A5.55,5.55,0,0,1,13.11,1a5.48,5.48,0,0,1,5.53,5.53v.22a3.24,3.24,0,0,1,4.42,3.1,3.58,3.58,0,0,1-.88,2.32"/><path class="cls-2" d="M17,23.09H7A1.06,1.06,0,0,1,5.91,22V15.34A1.06,1.06,0,0,1,7,14.23H17a1.06,1.06,0,0,1,1.11,1.11V22A1.06,1.06,0,0,1,17,23.09Z"/><path class="cls-2" d="M15.87,14.23H8.13V12.58A3.92,3.92,0,0,1,12,8.7h0a3.92,3.92,0,0,1,3.87,3.88v1.65Z"/><line class="cls-2" x1="12" y1="17.55" x2="12" y2="19.77"/></svg>