<svg xmlns="http://www.w3.org/2000/svg" viewBox="0 0 22 22">
    <g fill="none" stroke-width="2" stroke-linecap="round" stroke-linejoin="round">
        <path d="M5.8 10.4c1.8 2 3.8 4 5.8 5.8.2.2.5.2.7 0l.8-.8c.5-.5 1.3-.5 1.8 0l1.7 1.7c.5.5.5 1.3 0 1.8l-.8.8c-1.6 1.6-4.2 1.7-5.9.3C7 17.6 4.4 15 2 12.2.5 10.5.7 7.9 2.3 6.3l.8-.8c.5-.5 1.3-.5 1.8 0l1.7 1.7c.5.5.5 1.3 0 1.8l-.7.7c-.2.2-.2.5-.1.7z" stroke="#48578c"/>
        <path d="M14.1 10.5c.6.3 1.3.4 2 .4 2.7 0 5-2.2 5-5 0-2.7-2.2-5-5-5-2.7 0-5 2.2-5 5 0 1 .3 2 .8 2.7" stroke="#2d9bf3"/>
        <path stroke="#2d9bf3" d="M11.9 8.7v2.2l2.2-.4"/>
    </g>
</svg>
