<svg id="Layer_1" data-name="Layer 1" xmlns="http://www.w3.org/2000/svg" viewBox="0 0 24 24"><defs><style>.cls-1,.cls-2{fill:none;stroke-linecap:round;stroke-linejoin:round;stroke-width:1.5px;}.cls-1{stroke:#48578c;}.cls-2{stroke:#0089ff;}</style></defs><title>Fair pricing practices</title><path class="cls-1" d="M18.43,21.1a11.91,11.91,0,0,1-6.43,2A11.1,11.1,0,1,1,23.08,12a10.72,10.72,0,0,1-2.21,6.66"/><path class="cls-2" d="M15.33,9.23a1.71,1.71,0,0,0-1.67-1.67H10.34A1.71,1.71,0,0,0,8.67,9.23v1.11A1.71,1.71,0,0,0,10.34,12h3.32a1.71,1.71,0,0,1,1.67,1.66v1.11a1.71,1.71,0,0,1-1.67,1.67H10.34a1.71,1.71,0,0,1-1.67-1.67"/><line class="cls-2" x1="12" y1="5.34" x2="12" y2="18.66"/></svg>