<svg id="Layer_1" data-name="Layer 1" xmlns="http://www.w3.org/2000/svg" viewBox="0 0 24 24"><defs><style>.cls-1,.cls-2{fill:none;stroke-linecap:round;stroke-linejoin:round;stroke-width:1.5px;}.cls-1{stroke:#48578c;}.cls-2{stroke:#0089ff;}</style></defs><title>World class support</title><path class="cls-1" d="M3.12,12V9.78A8.91,8.91,0,0,1,12,.9h0a8.79,8.79,0,0,1,8.77,7.77"/><path class="cls-2" d="M19.77,18.66h1.11a2.23,2.23,0,0,0,2.22-2.22V14.22A2.23,2.23,0,0,0,20.88,12H19.77Z"/><path class="cls-1" d="M3.12,18.66H4.23V12H3.12A2.23,2.23,0,0,0,.9,14.22v2.22A2.23,2.23,0,0,0,3.12,18.66Z"/><path class="cls-2" d="M20.32,18.55h0A3.46,3.46,0,0,1,16.88,22H14.22"/><path class="cls-2" d="M13.11,23.1H10.89A1,1,0,0,1,9.78,22h0a1,1,0,0,1,1.11-1.11h2.22A1,1,0,0,1,14.22,22h0A1,1,0,0,1,13.11,23.1Z"/></svg>