<svg id="Layer_1" data-name="Layer 1" xmlns="http://www.w3.org/2000/svg" viewBox="0 0 24 24"><defs><style>.cls-1,.cls-3,.cls-4,.cls-5{fill:none;}.cls-1{stroke:#48578c;}.cls-1,.cls-3,.cls-5{stroke-linecap:round;stroke-linejoin:round;stroke-width:1.5px;}.cls-2{fill:#fff;}.cls-2,.cls-4{fill-rule:evenodd;}.cls-3{stroke:#0089ff;}.cls-5{stroke:#2481d7;}</style></defs><title>Regulatory compliance</title><g id="Page-1"><polyline id="Stroke-1" class="cls-1" points="7.43 20.94 0.69 20.94 0.69 0.73 17.53 0.73"/><polyline id="Fill-3" class="cls-2" points="17.94 20.06 19.74 23.18 20.95 21.35 23.14 21.22 21.43 18.25"/><polyline id="Stroke-4" class="cls-3" points="17.94 20.06 19.74 23.18 20.95 21.35 23.14 21.22 21.43 18.25"/><polyline id="Fill-6" class="cls-2" points="15.62 20.05 13.81 23.18 12.6 21.35 10.41 21.22 12.12 18.25"/><g id="Group-25"><polyline id="Stroke-7" class="cls-3" points="15.62 20.05 13.81 23.18 12.6 21.35 10.41 21.22 12.12 18.25"/><path id="Fill-9" class="cls-4" d="M23.14,13.36c0,.8-1.07,1.38-1.35,2.08s0,1.88-.51,2.42-1.71.21-2.43.51-1.28,1.35-2.07,1.35-1.38-1.06-2.08-1.35-1.88,0-2.43-.51-.21-1.71-.5-2.42-1.36-1.28-1.36-2.08,1.07-1.38,1.36-2.08,0-1.88.5-2.42S14,8.65,14.7,8.35,16,7,16.78,7s1.38,1.07,2.07,1.36,1.88,0,2.43.51.21,1.7.51,2.42,1.35,1.28,1.35,2.08"/><path id="Stroke-11" class="cls-3" d="M23.14,13.36c0,.8-1.07,1.38-1.35,2.08s0,1.88-.51,2.42-1.71.21-2.43.51-1.28,1.35-2.07,1.35-1.38-1.06-2.08-1.35-1.88,0-2.43-.51-.21-1.71-.5-2.42-1.36-1.28-1.36-2.08,1.07-1.38,1.36-2.08,0-1.88.5-2.42S14,8.65,14.7,8.35,16,7,16.78,7s1.38,1.07,2.07,1.36,1.88,0,2.43.51.21,1.7.51,2.42S23.14,12.56,23.14,13.36Z"/><polyline id="Stroke-13" class="cls-5" points="15.3 13.36 16.28 14.34 18.25 12.38"/><path id="Stroke-15" class="cls-1" d="M4.06,5.22h6.73"/><path id="Stroke-17" class="cls-1" d="M4.06,16.45H7.43"/><path id="Stroke-19" class="cls-1" d="M4.06,8.59H7.43"/><path id="Stroke-21" class="cls-1" d="M4.06,12H6.3"/><path id="Stroke-23" class="cls-1" d="M17.53.73V3"/></g></g></svg>